<svg width="74" height="20" viewBox="0 0 74 20" fill="none" xmlns="http://www.w3.org/2000/svg">
<path id="logo" fill-rule="evenodd" clip-rule="evenodd" d="M9.63166 19.6575H5.63524L0 5.39133H4.80145L7.64782 13.466L10.4942 5.39133H15.2669L9.63166 19.6575ZM14.1846 12.4105C14.1846 11.3262 14.3715 10.3371 14.7452 9.44311C15.119 8.5491 15.6365 7.77398 16.2978 7.11773C16.9591 6.46148 17.7401 5.95266 18.641 5.59125C19.5419 5.22984 20.529 5.04913 21.6024 5.04913C22.5799 5.04913 23.476 5.22508 24.2906 5.57698C25.1052 5.92888 25.8001 6.42819 26.3751 7.07493C26.9501 7.72167 27.4005 8.48728 27.7264 9.37178C28.0522 10.2563 28.2152 11.2311 28.2152 12.2963V13.0239C28.2152 13.2807 28.196 13.5518 28.1577 13.8371H18.7848C18.9381 14.636 19.3598 15.2732 20.0498 15.7488C20.7399 16.2243 21.6024 16.4621 22.6374 16.4621C23.3083 16.4621 24.0079 16.3479 24.7363 16.1197C25.4646 15.8914 26.2122 15.5585 26.9789 15.1211V18.8873C25.2538 19.6292 23.5383 20.0001 21.8324 20.0001C20.7015 20.0001 19.6713 19.8146 18.7416 19.4437C17.812 19.0728 17.007 18.5497 16.3265 17.8744C15.6461 17.1992 15.119 16.4003 14.7452 15.4777C14.3715 14.5552 14.1846 13.5328 14.1846 12.4105ZM23.7874 10.9553C23.7107 10.2514 23.452 9.68081 23.0111 9.24331C22.5702 8.80581 22.0336 8.58707 21.401 8.58707C20.711 8.58707 20.1264 8.80106 19.6472 9.22904C19.168 9.65703 18.8805 10.2324 18.7847 10.9553H23.7874ZM28.5415 12.4105C28.5415 11.3262 28.7284 10.3371 29.1022 9.44311C29.4759 8.5491 29.9934 7.77398 30.6547 7.11773C31.316 6.46148 32.0971 5.95266 32.9979 5.59125C33.8988 5.22984 34.8859 5.04913 35.9593 5.04913C36.9369 5.04913 37.8329 5.22508 38.6476 5.57698C39.4622 5.92888 40.157 6.42819 40.732 7.07493C41.307 7.72167 41.7575 8.48728 42.0833 9.37178C42.4092 10.2563 42.5721 11.2311 42.5721 12.2963V13.0239C42.5721 13.2807 42.5529 13.5518 42.5146 13.8371H33.1417C33.295 14.636 33.7167 15.2732 34.4068 15.7488C35.0968 16.2243 35.9593 16.4621 36.9944 16.4621C37.6652 16.4621 38.3648 16.3479 39.0932 16.1197C39.8216 15.8914 40.5691 15.5585 41.3358 15.1211V18.8873C39.6107 19.6292 37.8952 20.0001 36.1893 20.0001C35.0584 20.0001 34.0282 19.8146 33.0986 19.4437C32.1689 19.0728 31.3639 18.5497 30.6835 17.8744C30.003 17.1992 29.4759 16.4003 29.1022 15.4777C28.7284 14.5552 28.5415 13.5328 28.5415 12.4105ZM38.1443 10.9553C38.0676 10.2514 37.8089 9.68081 37.368 9.24331C36.9272 8.80581 36.3905 8.58707 35.758 8.58707C35.0679 8.58707 34.4833 8.80106 34.0041 9.22904C33.5249 9.65703 33.2374 10.2324 33.1416 10.9553H38.1443ZM42.4097 17.004L48.3037 9.12906H42.7547V5.39133H54.3414V8.0163L48.4187 15.8912H54.5139V19.6575H42.4097V17.004ZM55.6741 0H60.3606V19.6576H55.6741V0ZM69.5724 18.7732C68.3265 19.5911 67.0423 20.0001 65.7198 20.0001C65.0489 20.0001 64.4308 19.8955 63.8653 19.6862C63.2999 19.477 62.8111 19.1774 62.399 18.7875C61.9869 18.3975 61.6658 17.9362 61.4358 17.4036C61.2058 16.871 61.0908 16.2814 61.0908 15.6346C61.0908 14.8738 61.2585 14.1795 61.594 13.5518C61.9294 12.9241 62.4086 12.3819 63.0315 11.9254C63.6545 11.4689 64.3924 11.117 65.2454 10.8697C66.0983 10.6224 67.0423 10.4988 68.0774 10.4988C68.2882 10.4988 68.5182 10.5036 68.7674 10.5131C69.0166 10.5226 69.2849 10.5369 69.5724 10.5559V10.2991C69.5724 9.7855 69.3568 9.37179 68.9255 9.05793C68.4943 8.74407 67.9432 8.58714 67.2723 8.58714C66.4865 8.58714 65.6814 8.70603 64.8572 8.9438C64.033 9.18157 63.1897 9.54773 62.3271 10.0423V6.27602C64.148 5.45809 65.9881 5.04913 67.8474 5.04913C68.7866 5.04913 69.6347 5.18704 70.3918 5.46285C71.149 5.73867 71.7959 6.12385 72.3326 6.61841C72.8692 7.11298 73.2813 7.69788 73.5688 8.37315C73.8564 9.04842 74.0001 9.79501 74.0001 10.6129V19.6577H69.5724V18.7732ZM65.4031 14.9211C65.4031 15.3777 65.5564 15.7486 65.8631 16.0339C66.1698 16.3192 66.5723 16.4619 67.0706 16.4619C67.8182 16.4619 68.5561 16.1195 69.2845 15.4347V13.2377C69.0736 13.2187 68.8628 13.2044 68.652 13.1949C68.4411 13.1854 68.2303 13.1807 68.0194 13.1807C67.2144 13.1807 66.5771 13.3471 66.1075 13.68C65.6379 14.0129 65.4031 14.4266 65.4031 14.9211Z" fill="#666DED"/>
</svg>
